GRFwalking.mot
version=1
nRows=9
nColumns=37
inDegrees=yes
endheader
time	ground_force_calcn_l_vx	ground_force_calcn_l_vy	ground_force_calcn_l_vz	ground_force_calcn_l_px	ground_force_calcn_l_py	ground_force_calcn_l_pz	ground_torque_calcn_l_vx	ground_torque_calcn_l_vy	ground_torque_calcn_l_vz	ground_force_calcn_r_vx	ground_force_calcn_r_vy	ground_force_calcn_r_vz	ground_force_calcn_r_px	ground_force_calcn_r_py	ground_force_calcn_r_pz	ground_torque_calcn_r_vx	ground_torque_calcn_r_vy	ground_torque_calcn_r_vz	ground_force_hand_l_vx	ground_force_hand_l_vy	ground_force_hand_l_vz	ground_force_hand_l_px	ground_force_hand_l_py	ground_force_hand_l_pz	ground_torque_hand_l_vx	ground_torque_hand_l_vy	ground_torque_hand_l_vz	ground_force_hand_r_vx	ground_force_hand_r_vy	ground_force_hand_r_vz	ground_force_hand_r_px	ground_force_hand_r_py	ground_force_hand_r_pz	ground_torque_hand_r_vx	ground_torque_hand_r_vy	ground_torque_hand_r_vz
 1.149986      -8.56326      18.91222     -7.240224      1.286963 -7.806256e-17    -0.3511869             0    -0.5006449             0      -57.4209       653.915     -3.264538      1.423114 -8.673617e-17    -0.1515035             0    -0.4027975             0             0             0             0      1.396467     0.8160172    -0.4872152             0             0             0             0             0             0      1.488328     0.8216414   -0.00090341             0             0             0
 1.166652     -11.66302      59.05402     -2.765732      1.333193   -8.1532e-17    -0.3572466             0    -0.5959625             0     -51.61742      610.6334    -0.8280298      1.421817 -8.673617e-17    -0.1517171             0    -0.4714698             0             0             0             0       1.40667     0.8150598    -0.4872881             0             0             0             0             0             0      1.497893     0.8207576    0.00033335             0             0             0
 1.183319     -14.09467       107.762     0.8825295      1.377607 -8.413409e-17    -0.3597094             0    -0.6035166             0     -44.28729      563.6755     0.1092819      1.422429 -8.673617e-17    -0.1519421             0    -0.4591676             0             0             0             0      1.417665     0.8141744    -0.4872437             0             0             0             0             0             0      1.507745     0.8196916    0.00122118             0             0             0
 1.199985     -16.05326      154.5584      2.743292      1.417448 -8.673617e-17    -0.3592183             0    -0.5249285             0     -35.38225      523.3854     0.3390714      1.424197 -8.760354e-17     -0.151897             0     -0.378601             0             0             0             0      1.429187     0.8139876    -0.4868984             0             0             0             0             0             0      1.517768     0.8190279    0.00189585             0             0             0
 1.216652     -17.41635      187.8414      2.112091      1.453072 -8.933826e-17    -0.3565843             0    -0.3769011             0     -25.36077      500.8133     0.6285107      1.427019 -8.760354e-17    -0.1511222             0    -0.2519108             0             0             0             0      1.440883     0.8146781    -0.4860272             0             0             0             0             0             0      1.527755     0.8190134    0.00253661             0             0             0
 1.233318     -17.90361      199.1086     -1.072529      1.480997 -9.107298e-17    -0.3507519             0    -0.1875477             0     -15.09643      503.4157       1.34175      1.430934  -8.84709e-17    -0.1494437             0    -0.1026941             0             0             0             0      1.452401      0.815862    -0.4845093             0             0             0             0             0             0      1.537452     0.8194175    0.00323122             0             0             0
 1.249985     -17.30726      185.7343     -6.118698      1.494552 -9.194034e-17    -0.3398439             0   0.004200268             0     -5.547997      532.4332      2.272885      1.435313  -8.84709e-17    -0.1472254             0    0.04362535             0             0             0             0      1.463454     0.8167477    -0.4824082             0             0             0             0             0             0      1.546616     0.8196206    0.00391616             0             0             0
 1.266652     -15.62989      151.5356     -11.81482      1.497198 -9.194034e-17    -0.3271831             0     0.1524081             0       2.59536      582.6921       2.76002      1.438529  -8.84709e-17     -0.145288             0     0.1569762             0             0             0             0      1.473841     0.8165139    -0.4799208             0             0             0             0             0             0       1.55509     0.8189193    0.00444572             0             0             0
 1.283318       -13.053      105.5257      -16.9086      1.504749 -9.194034e-17     -0.319754             0     0.2151218             0      9.085407      644.2857      2.002525      1.439375  -8.84709e-17    -0.1443389             0     0.2049293             0             0             0             0      1.483414     0.8147286    -0.4772672             0             0             0             0             0             0      1.562844     0.8169086    0.00471197             0             0             0
